<svg xmlns="http://www.w3.org/2000/svg" viewBox="0 0 692.47 313.76"><defs><style>.cls-1{fill:#fff;}.cls-2{fill:#231f20;}.cls-3{fill:#eb2227;}</style></defs><g id="Layer_2" data-name="Layer 2"><g id="Layer_1-2" data-name="Layer 1"><path class="cls-1" d="M443,97c-.14-3.1-.69-7.55-1.31-12.7-1.16-9.65-2.62-21.66-2.62-33a79.83,79.83,0,0,1,2-18.76c-35.38-2.17-76.49-16-95.36-26.41-18.9,10.38-60,24.24-95.37,26.41a80.51,80.51,0,0,1,1.92,18.76c0,11.37-1.46,23.38-2.61,33-.6,5.15-1.15,9.6-1.31,12.7l-.18,7.14a134.67,134.67,0,0,0,12.15,56.17c17.88,39.31,55.72,68.93,85.4,87.32,29.66-18.39,67.51-48,85.39-87.32a134.5,134.5,0,0,0,12.14-56.17Z"/><path class="cls-2" d="M345.68,19.61C325.8,29.28,294,39.46,264,43.26c.19,2.54.28,5.19.28,8,0,12.09-1.51,24.49-2.7,34.47-.57,4.66-1.09,9.06-1.25,11.78l-.16,6.71a122.65,122.65,0,0,0,11.05,51.08c15.48,34,47.81,60.68,74.44,78,26.61-17.34,58.93-44,74.4-78a123,123,0,0,0,11.08-51.08L431,97.48c-.15-2.71-.65-6.9-1.26-11.81-1.2-10-2.67-22.35-2.67-34.44,0-2.78.09-5.43.26-8-29.91-3.8-61.77-14-81.63-23.65"/><path class="cls-2" d="M448.31,96.7c-.5-9.24-3.93-28.35-3.92-45.51A90,90,0,0,1,445.27,38c0-.1,0-.21.05-.32a40.88,40.88,0,0,1,2.84-10.17C409.58,26.88,362.26,10,345.68,0c-16.59,10-63.91,26.88-102.49,27.47A41.31,41.31,0,0,1,246,37.64c0,.11,0,.22.05.32A90,90,0,0,1,247,51.19c0,17.16-3.45,36.27-3.93,45.51q-.19,3.7-.19,7.39a140.46,140.46,0,0,0,12.63,58.36C273,201,310.1,232.21,345.68,253.81c35.55-21.6,72.67-52.81,90.2-91.36a140.92,140.92,0,0,0,12.62-58.36q0-3.69-.19-7.39m-12.63,31.62a130.45,130.45,0,0,1-9.42,29.76c-7.57,16.64-19.68,33-36.05,48.8a283.42,283.42,0,0,1-44.53,34.51,281.68,281.68,0,0,1-44.54-34.51c-16.38-15.75-28.5-32.16-36.05-48.8a129.89,129.89,0,0,1-11.51-60.83c.15-2.94.67-7.3,1.29-12.36,1.71-14.24,3.91-32.4,1.78-47.61,18.48-1.73,36.31-6.13,49-9.89,15.19-4.5,29.85-10.15,40-15.33,10.12,5.18,24.79,10.83,40,15.33,12.72,3.76,30.54,8.16,49,9.89-2.13,15.21.06,33.37,1.76,47.61.62,5.06,1.15,9.42,1.3,12.36a130.84,130.84,0,0,1-2.08,31.07"/><path class="cls-1" d="M350.57,170.13a4.91,4.91,0,1,1-4.89-4.9,4.91,4.91,0,0,1,4.89,4.9"/><path class="cls-1" d="M402.44,89.93c-1.6-4.7-3.11-7.27-6.27-10.21s-4.1-3.88-8-5.3a16.71,16.71,0,0,0-15.05,1.19c-6.14,3.52-12,7.91-16.7,14.62a65,65,0,0,0-9,17.57c-2,5.89-4.68,12.56-7.73,19.87A53,53,0,0,1,332,140.92c-2.27,3.09-7.31,7.9-9,9.5a11.4,11.4,0,0,1-3.8,2.31,17.19,17.19,0,0,0-5.43,4c-3.22,3.21-16.7,16.67-17.17,17.12s-.59.75-.56,1.08a8.39,8.39,0,0,0,2,2.42,10.36,10.36,0,0,0,2.38,1.64c.82-.19,1.48-1.27,2.91-2.65s13.61-13.31,16.06-15.88a26.06,26.06,0,0,0,4.27-6.31c.77-1.34.68-1.3,3.87-4.32s3.34-3.65,7.31-6.64a54.29,54.29,0,0,1,14.47-7.64c6.6-2.49,10.34-4.21,17.78-6.6a64.56,64.56,0,0,0,15-6.56,45,45,0,0,0,9.06-7.16c3.84-3.69,8.39-8.8,9.93-12.6s2.9-8,1.29-12.73M353.53,131.7a87.54,87.54,0,0,0-9.08,3.54c-3.75,1.68-6.63,4.22-7.3,3.39s.59-2.19,1.68-4.28,1.34-2.87,2-4.33c2-4.33,4.07-9.7,4.35-10.36s1.51,0,1.46.48,1.25,3.09,3.37,5.45,6,3.32,6.15,4.29-.59,1.19-2.64,1.82m44.58-27.52a54.58,54.58,0,0,1-10.5,11.67,60.19,60.19,0,0,1-15.47,9.29c-4.75,1.9-10,3.8-14.66,2.57s-9.33-5.56-9.48-10a36,36,0,0,1,3.39-15c2.24-4.71,6-11.27,9-14.51s8-8.21,12.44-10.44,9.05-3.91,13.48-2.27,5.33,1.86,9.23,5.85a19.32,19.32,0,0,1,5.66,11.82c.56,4.15-.53,7.38-3.07,11"/><path class="cls-1" d="M290.26,102.66c1.52,3.8,6.08,8.91,9.91,12.6a45.62,45.62,0,0,0,9.07,7.16,64.75,64.75,0,0,0,15,6.56c7.45,2.39,11.17,4.11,17.76,6.6a54,54,0,0,1,14.49,7.64c4,3,4.11,3.62,7.31,6.64s3.1,3,3.88,4.32a26.56,26.56,0,0,0,4.26,6.31c2.46,2.57,14.63,14.51,16.06,15.88s2.09,2.46,2.91,2.65a10.49,10.49,0,0,0,2.4-1.64,8.66,8.66,0,0,0,2-2.42c0-.33-.12-.63-.58-1.08l-17.14-17.12a17.23,17.23,0,0,0-5.45-4,11.51,11.51,0,0,1-3.8-2.31,96.29,96.29,0,0,1-9-9.5,53.59,53.59,0,0,1-7.67-13.25c-3.06-7.31-5.74-14-7.72-19.87a65,65,0,0,0-9-17.57c-4.66-6.71-10.55-11.11-16.7-14.62a16.67,16.67,0,0,0-15-1.19c-3.91,1.42-4.85,2.35-8,5.3s-4.65,5.51-6.27,10.21-.23,8.92,1.3,12.73m45,27.22c.11-1,4-1.95,6.15-4.29s3.4-4.93,3.36-5.45,1.16-1.15,1.45-.48,2.37,6,4.37,10.36c.68,1.46.94,2.24,2,4.33s2.35,3.47,1.67,4.28-3.53-1.71-7.3-3.39a88.46,88.46,0,0,0-9.06-3.54c-2.06-.63-2.76-.87-2.65-1.82m-45-36.74a19.36,19.36,0,0,1,5.65-11.82c3.89-4,4.8-4.21,9.23-5.85s9.07,0,13.5,2.27S328,84.94,331,88.18s6.78,9.8,9,14.51a35.89,35.89,0,0,1,3.4,15c-.15,4.44-4.78,8.76-9.49,10s-9.9-.67-14.64-2.57a59.94,59.94,0,0,1-15.49-9.29,56.22,56.22,0,0,1-10.53-11.67c-2.52-3.66-3.59-6.89-3-11"/><path class="cls-3" d="M263.65,66c5.63-1.11,10.19-2.06,11.08-2.43,2.74-1.09,4.29-2.81,5.07-3.12a35.11,35.11,0,0,0,5.94-2c3.29-1.49,5.32-5.25,6.31-6s4.1-1.93,5.26-3a30.38,30.38,0,0,1,3.75-2.9c1-.65,4-.54,4.8-1.07a5.54,5.54,0,0,1,2.67-.65c.44,0,1.78,1.4,2.48,1.4s1.86-.54,2.58.1,5,4.19,5,4.19,2.23-3.54,2.93-4.29,1.42-1.5,1.5-1.08a4.37,4.37,0,0,0,1.88,1.61c.46.11,1.15.22,1.52.33s.44-.54.72-.33.44.22,1.06.33,1.53-1.4,2.05-1.4.71,1,1.42,1.07A13.32,13.32,0,0,1,334,47c.45.21,1.09,1.28,1.34,1.38s.89.11,2.15-.42,4-3.21,5.07-4,3.3-1,3.47-1.61,2.84-1.72,3.72-1.72,3.94,4,4.74,4.28S358,48.42,358,48.42a18.25,18.25,0,0,1,2.31-1.17c.27,0,.81.86,1.61,1.28s1.41.11,2.15.43a31.79,31.79,0,0,1,2.83,2.48c.37.2,1.33-.12,1.33-.12s3.68-2,4.37-2,4,2.78,4.29,3.32,3.82-1,4.27-1.5,1.51-2.36,2.31-2.15,2.13,1.51,2.85,2,2.85.22,2.85.22,2.68,4.82,4.37,5.56,7.12,1.62,8.37,1.94,9.53-.32,10.87.54,7.66,4.82,9.15,5.25c.63.17,3.07,1.11,5.75,2.14-.4-5.05-.67-10.26-.67-15.42,0-2.78.09-5.43.26-8-29.91-3.8-61.77-14-81.63-23.65C325.8,29.28,294,39.46,264,43.26c.18,2.54.27,5.19.27,8,0,5-.26,9.93-.65,14.8"/><path class="cls-2" d="M18.73,307.38,13,294.08H7.17v13.3H0V271.51H18.29a6.75,6.75,0,0,1,7.07,7.07V287a6.68,6.68,0,0,1-4.88,6.78l6,13.6ZM18.18,280a1.52,1.52,0,0,0-1.69-1.7H7.17v9.12h9.32a1.52,1.52,0,0,0,1.69-1.69Z"/><path class="cls-2" d="M36.69,307.38H29.26l11.56-35.87h8.37l11.57,35.87H53l-2.34-8.07H39.08Zm4.38-14.85h7.67L45,279.38Z"/><path class="cls-2" d="M84.19,271.51a6.75,6.75,0,0,1,7.07,7.07v21.73a6.75,6.75,0,0,1-7.07,7.07H65.5V271.51Zm-1.8,29.1a1.53,1.53,0,0,0,1.7-1.7V280a1.53,1.53,0,0,0-1.7-1.7H72.68v22.33Z"/><path class="cls-2" d="M105.48,271.51v29.1h15v6.77H98.3V271.51Z"/><path class="cls-2" d="M143.41,271.31a6.75,6.75,0,0,1,7.08,7.07V300.5a6.75,6.75,0,0,1-7.08,7.08h-12a6.75,6.75,0,0,1-7.07-7.08V278.38a6.75,6.75,0,0,1,7.07-7.07Zm-.1,8.47a1.52,1.52,0,0,0-1.69-1.7H133.2a1.52,1.52,0,0,0-1.69,1.7v19.33a1.52,1.52,0,0,0,1.69,1.7h8.42a1.52,1.52,0,0,0,1.69-1.7Z"/><path class="cls-2" d="M157.53,271.51H181v6.77H164.7V286h13.2v6.77H164.7v14.65h-7.17Z"/><path class="cls-2" d="M186.45,271.51h23.46v6.77H193.62V286h13.2v6.77h-13.2v14.65h-7.17Z"/><path class="cls-2" d="M246.85,271.51a6.74,6.74,0,0,1,7.07,7.07v9.07a6.74,6.74,0,0,1-7.07,7.08H235.69v12.65h-7.18V271.51ZM245.06,288a1.52,1.52,0,0,0,1.69-1.69V280a1.53,1.53,0,0,0-1.69-1.7h-9.37V288Z"/><path class="cls-2" d="M261.77,307.38h-7.43l11.56-35.87h8.37l11.56,35.87h-7.72l-2.34-8.07H264.16Zm4.38-14.85h7.67L270,279.38Z"/><path class="cls-2" d="M309.31,307.38l-5.77-13.3h-5.78v13.3h-7.18V271.51h18.29a6.75,6.75,0,0,1,7.07,7.07V287a6.68,6.68,0,0,1-4.88,6.78l6,13.6Zm-.55-27.4a1.52,1.52,0,0,0-1.69-1.7h-9.31v9.12h9.31a1.52,1.52,0,0,0,1.69-1.69Z"/><path class="cls-2" d="M330.06,298.21v9.17H323V271.51h7.07v16.84l12.41-16.84h8.42l-11,14.15,11.57,21.72h-8.07l-8.28-15.59Z"/><path class="cls-2" d="M386,279.78a1.53,1.53,0,0,0-1.7-1.7h-7.18a1.53,1.53,0,0,0-1.69,1.7v3.39c0,1.09.6,1.44,1.69,1.69l9.27,2c3.89.85,7.18,3.19,7.18,7.18v6.47a6.75,6.75,0,0,1-7.07,7.08H375.38a6.75,6.75,0,0,1-7.08-7.08v-4.58h7v3.19a1.53,1.53,0,0,0,1.7,1.7h7.77a1.52,1.52,0,0,0,1.69-1.7v-3.79c0-1.09-.59-1.44-1.69-1.69l-9.27-2c-3.89-.85-7.17-3.19-7.17-7.18v-6.08a6.75,6.75,0,0,1,7.08-7.07h10.55a6.75,6.75,0,0,1,7.08,7.07v4.19h-7Z"/><path class="cls-2" d="M418.88,271.31a6.76,6.76,0,0,1,7.09,7.07V300.5a6.76,6.76,0,0,1-7.09,7.08H416.4v6.18h-7.18v-6.18h-2.54a6.75,6.75,0,0,1-7.08-7.08V278.38a6.75,6.75,0,0,1,7.08-7.07Zm-.09,8.57a1.53,1.53,0,0,0-1.7-1.7h-8.61a1.52,1.52,0,0,0-1.69,1.7V299a1.52,1.52,0,0,0,1.69,1.7h8.61a1.53,1.53,0,0,0,1.7-1.7Z"/><path class="cls-2" d="M458.07,300.5a6.75,6.75,0,0,1-7.08,7.08H439.54a6.74,6.74,0,0,1-7.07-7.08v-29h7.16v27.6a1.53,1.53,0,0,0,1.7,1.7h7.87a1.52,1.52,0,0,0,1.69-1.7v-27.6h7.18Z"/><path class="cls-2" d="M469.1,307.38h-7.42l11.55-35.87h8.37l11.56,35.87h-7.73l-2.33-8.07H471.49Zm4.38-14.85h7.67l-3.79-13.15Z"/><path class="cls-2" d="M514.06,279.78a1.53,1.53,0,0,0-1.7-1.7h-7.17a1.52,1.52,0,0,0-1.69,1.7v3.39c0,1.09.59,1.44,1.69,1.69l9.26,2c3.89.85,7.18,3.19,7.18,7.18v6.47a6.75,6.75,0,0,1-7.07,7.08H503.4a6.76,6.76,0,0,1-7.09-7.08v-4.58h7v3.19a1.53,1.53,0,0,0,1.7,1.7h7.77a1.53,1.53,0,0,0,1.69-1.7v-3.79c0-1.09-.6-1.44-1.69-1.69l-9.26-2c-3.9-.85-7.19-3.19-7.19-7.18v-6.08a6.76,6.76,0,0,1,7.09-7.07H514a6.75,6.75,0,0,1,7.08,7.07v4.19h-7Z"/><path class="cls-2" d="M528.47,271.51h7.18v14.15H548V271.51h7.17v35.87H548V292.43H535.65v14.95h-7.18Z"/><path class="cls-2" d="M593.72,279.78a1.53,1.53,0,0,0-1.69-1.7h-7.78a1.52,1.52,0,0,0-1.69,1.7v19.33a1.52,1.52,0,0,0,1.69,1.7H592a1.53,1.53,0,0,0,1.69-1.7v-4.38h7.18v5.77a6.76,6.76,0,0,1-7.08,7.08H582.46a6.74,6.74,0,0,1-7.07-7.08V278.38a6.74,6.74,0,0,1,7.07-7.07h11.36a6.75,6.75,0,0,1,7.08,7.07v5.78h-7.18Z"/><path class="cls-2" d="M614.47,271.51v29.1h15v6.77H607.29V271.51Z"/><path class="cls-2" d="M659.51,300.5a6.74,6.74,0,0,1-7.07,7.08H641a6.75,6.75,0,0,1-7.07-7.08v-29h7.18v27.6a1.52,1.52,0,0,0,1.69,1.7h7.87a1.53,1.53,0,0,0,1.7-1.7v-27.6h7.16Z"/><path class="cls-2" d="M685,271.51a6.74,6.74,0,0,1,7.07,7.07v5.08a5.88,5.88,0,0,1-3.14,5.39,5.76,5.76,0,0,1,3.54,5.38v5.88a6.75,6.75,0,0,1-7.07,7.07H666.87V271.51Zm-1.8,14.35c1.3,0,1.7-.3,1.7-1.7v-4.28a1.53,1.53,0,0,0-1.7-1.7H674v7.68Zm.4,14.85a1.52,1.52,0,0,0,1.69-1.7v-5.18c0-1.5-.89-1.6-2.29-1.6h-9v8.48Z"/></g></g></svg>